<?xml version="1.0" encoding="UTF-8" standalone="no"?>
<svg
   xmlns:dc="http://purl.org/dc/elements/1.1/"
   xmlns:cc="http://creativecommons.org/ns#"
   xmlns:rdf="http://www.w3.org/1999/02/22-rdf-syntax-ns#"
   xmlns:svg="http://www.w3.org/2000/svg"
   xmlns="http://www.w3.org/2000/svg"
   version="1.1"
   id="svg3336"
   viewBox="0 0 750.00001 750.00001"
   height="750"
   width="750">
  <defs
     id="defs3338" />
  <metadata
     id="metadata3341">
    <rdf:RDF>
      <cc:Work
         rdf:about="">
        <dc:format>image/svg+xml</dc:format>
        <dc:type
           rdf:resource="http://purl.org/dc/dcmitype/StillImage" />
        <dc:title></dc:title>
      </cc:Work>
    </rdf:RDF>
  </metadata>
  <g
     transform="translate(0,-302.36213)"
     id="layer1">
    <g
       id="text3344"
       style="font-style:normal;font-weight:normal;font-size:40px;line-height:125%;font-family:sans-serif;text-align:center;letter-spacing:0px;word-spacing:0px;text-anchor:middle;fill:#000000;fill-opacity:1;stroke:none;stroke-width:1px;stroke-linecap:butt;stroke-linejoin:miter;stroke-opacity:1">
      <path
         id="path3745"
         style="font-size:80px;text-align:center;text-anchor:middle"
         d="m 70.867767,474.04187 49.335933,0 0,6.64063 -20.70312,0 0,51.67968 -7.929688,0 0,-51.67968 -20.703125,0 0,-6.64063 z" />
      <path
         id="path3747"
         style="font-size:80px;text-align:center;text-anchor:middle"
         d="m 163.91464,505.95593 0,26.40625 -7.1875,0 0,-26.17187 q 0,-6.21094 -2.42187,-9.29688 -2.42188,-3.08593 -7.26563,-3.08593 -5.82031,0 -9.17969,3.71093 -3.35937,3.71094 -3.35937,10.11719 l 0,24.72656 -7.22656,0 0,-60.78125 7.22656,0 0,23.82813 q 2.57812,-3.94531 6.05469,-5.89844 3.51562,-1.95312 8.08593,-1.95312 7.53907,0 11.40625,4.6875 3.86719,4.64843 3.86719,13.71093 z" />
      <path
         id="path3749"
         style="font-size:80px;text-align:center;text-anchor:middle"
         d="m 215.75058,508.69031 0,3.51562 -33.04688,0 q 0.46875,7.42188 4.45313,11.32813 4.02344,3.86719 11.17187,3.86719 4.14063,0 8.00782,-1.01563 3.90625,-1.01562 7.73437,-3.04687 l 0,6.79687 q -3.86719,1.64063 -7.92969,2.5 -4.0625,0.85938 -8.24218,0.85938 -10.46875,0 -16.60157,-6.09375 -6.09375,-6.09375 -6.09375,-16.48438 0,-10.74219 5.78125,-17.03125 5.82032,-6.32812 15.66407,-6.32812 8.82812,0 13.94531,5.70312 5.15625,5.66406 5.15625,15.42969 z m -7.1875,-2.10938 q -0.0781,-5.89843 -3.32031,-9.41406 -3.20313,-3.51562 -8.51563,-3.51562 -6.01562,0 -9.64844,3.39843 -3.59375,3.39844 -4.14062,9.57032 l 25.625,-0.0391 z" />
      <path
         id="path3751"
         style="font-size:80px;text-align:center;text-anchor:middle"
         d="m 245.75058,536.42468 q -3.04688,7.8125 -5.9375,10.19532 -2.89063,2.38281 -7.73438,2.38281 l -5.74218,0 0,-6.01563 4.21875,0 q 2.96875,0 4.60937,-1.40625 1.64063,-1.40625 3.63281,-6.64062 l 1.28907,-3.28125 -17.69532,-43.04688 7.61719,0 13.67188,34.21875 13.67187,-34.21875 7.61719,0 -19.21875,47.8125 z" />
      <path
         id="path3753"
         style="font-size:80px;text-align:center;text-anchor:middle"
         d="m 328.25058,489.90125 0,6.79687 q -3.04688,-1.5625 -6.32813,-2.34375 -3.28125,-0.78125 -6.79687,-0.78125 -5.35156,0 -8.04688,1.64063 -2.65625,1.64062 -2.65625,4.92187 0,2.5 1.91407,3.94531 1.91406,1.40625 7.69531,2.69532 l 2.46094,0.54687 q 7.65625,1.64063 10.85937,4.64844 3.24219,2.96875 3.24219,8.32031 0,6.09375 -4.84375,9.64844 -4.80469,3.55469 -13.24219,3.55469 -3.51562,0 -7.34375,-0.70313 -3.78906,-0.66406 -8.00781,-2.03125 l 0,-7.42187 q 3.98437,2.07031 7.85156,3.125 3.86719,1.01562 7.65625,1.01562 5.07813,0 7.8125,-1.71875 2.73438,-1.75781 2.73438,-4.92187 0,-2.92969 -1.99219,-4.49219 -1.95313,-1.5625 -8.63281,-3.00781 l -2.5,-0.58594 q -6.67969,-1.40625 -9.64844,-4.29688 -2.96875,-2.92968 -2.96875,-8.00781 0,-6.17187 4.375,-9.53125 4.375,-3.35937 12.42187,-3.35937 3.98438,0 7.5,0.58593 3.51563,0.58594 6.48438,1.75782 z" />
      <path
         id="path3755"
         style="font-size:80px;text-align:center;text-anchor:middle"
         d="m 361.96152,510.37 q -8.71094,0 -12.07032,1.99218 -3.35937,1.99219 -3.35937,6.79688 0,3.82812 2.5,6.09375 2.53906,2.22656 6.875,2.22656 5.97656,0 9.57031,-4.21875 3.63281,-4.25781 3.63281,-11.28906 l 0,-1.60156 -7.14843,0 z m 14.33593,-2.96875 0,24.96093 -7.1875,0 0,-6.64062 q -2.46093,3.98437 -6.13281,5.89844 -3.67187,1.875 -8.98437,1.875 -6.71875,0 -10.70313,-3.75 -3.94531,-3.78907 -3.94531,-10.11719 0,-7.38281 4.92187,-11.13281 4.96094,-3.75 14.76563,-3.75 l 10.07812,0 0,-0.70313 q 0,-4.96094 -3.28125,-7.65625 -3.24218,-2.73437 -9.14062,-2.73437 -3.75,0 -7.30469,0.89843 -3.55469,0.89844 -6.83594,2.69532 l 0,-6.64063 q 3.94532,-1.52344 7.65625,-2.26562 3.71094,-0.78125 7.22657,-0.78125 9.49218,0 14.17968,4.92187 4.6875,4.92188 4.6875,14.92188 z" />
      <path
         id="path3757"
         style="font-size:80px;text-align:center;text-anchor:middle"
         d="m 391.1412,488.61218 7.1875,0 0,43.75 -7.1875,0 0,-43.75 z m 0,-17.03125 7.1875,0 0,9.10157 -7.1875,0 0,-9.10157 z" />
      <path
         id="path3759"
         style="font-size:80px;text-align:center;text-anchor:middle"
         d="m 442.11777,495.25281 0,-23.67188 7.1875,0 0,60.78125 -7.1875,0 0,-6.5625 q -2.26563,3.90625 -5.74219,5.82032 -3.4375,1.875 -8.28125,1.875 -7.92969,0 -12.92969,-6.32813 -4.96094,-6.32812 -4.96094,-16.64062 0,-10.3125 4.96094,-16.64063 5,-6.32812 12.92969,-6.32812 4.84375,0 8.28125,1.91406 3.47656,1.875 5.74219,5.78125 z m -24.49219,15.27344 q 0,7.92968 3.24219,12.46093 3.28125,4.49219 8.98437,4.49219 5.70313,0 8.98438,-4.49219 3.28125,-4.53125 3.28125,-12.46093 0,-7.92969 -3.28125,-12.42188 -3.28125,-4.53125 -8.98438,-4.53125 -5.70312,0 -8.98437,4.53125 -3.24219,4.49219 -3.24219,12.42188 z" />
      <path
         id="path3761"
         style="font-size:80px;text-align:center;text-anchor:middle"
         d="m 496.68808,476.19031 0,12.42187 14.80469,0 0,5.58594 -14.80469,0 0,23.75 q 0,5.35156 1.44531,6.875 1.48438,1.52344 5.97656,1.52344 l 7.38282,0 0,6.01562 -7.38282,0 q -8.32031,0 -11.48437,-3.08593 -3.16406,-3.125 -3.16406,-11.32813 l 0,-23.75 -5.27344,0 0,-5.58594 5.27344,0 0,-12.42187 7.22656,0 z" />
      <path
         id="path3763"
         style="font-size:80px;text-align:center;text-anchor:middle"
         d="m 537.93808,493.65125 q -5.78125,0 -9.14063,4.53125 -3.35937,4.49218 -3.35937,12.34375 0,7.85156 3.32031,12.38281 3.35938,4.49219 9.17969,4.49219 5.74219,0 9.10156,-4.53125 3.35938,-4.53125 3.35938,-12.34375 0,-7.77344 -3.35938,-12.30469 -3.35937,-4.57031 -9.10156,-4.57031 z m 0,-6.09375 q 9.375,0 14.72656,6.09375 5.35156,6.09375 5.35156,16.875 0,10.74218 -5.35156,16.875 -5.35156,6.09375 -14.72656,6.09375 -9.41406,0 -14.76563,-6.09375 -5.3125,-6.13282 -5.3125,-16.875 0,-10.78125 5.3125,-16.875 5.35157,-6.09375 14.76563,-6.09375 z" />
      <path
         id="path3765"
         style="font-size:80px;text-align:center;text-anchor:middle"
         d="m 624.14902,495.25281 0,-23.67188 7.1875,0 0,60.78125 -7.1875,0 0,-6.5625 q -2.26563,3.90625 -5.74219,5.82032 -3.4375,1.875 -8.28125,1.875 -7.92969,0 -12.92969,-6.32813 -4.96094,-6.32812 -4.96094,-16.64062 0,-10.3125 4.96094,-16.64063 5,-6.32812 12.92969,-6.32812 4.84375,0 8.28125,1.91406 3.47656,1.875 5.74219,5.78125 z m -24.49219,15.27344 q 0,7.92968 3.24219,12.46093 3.28125,4.49219 8.98437,4.49219 5.70313,0 8.98438,-4.49219 3.28125,-4.53125 3.28125,-12.46093 0,-7.92969 -3.28125,-12.42188 -3.28125,-4.53125 -8.98438,-4.53125 -5.70312,0 -8.98437,4.53125 -3.24219,4.49219 -3.24219,12.42188 z" />
      <path
         id="path3767"
         style="font-size:80px;text-align:center;text-anchor:middle"
         d="m 663.09433,493.65125 q -5.78125,0 -9.14063,4.53125 -3.35937,4.49218 -3.35937,12.34375 0,7.85156 3.32031,12.38281 3.35938,4.49219 9.17969,4.49219 5.74219,0 9.10156,-4.53125 3.35938,-4.53125 3.35938,-12.34375 0,-7.77344 -3.35938,-12.30469 -3.35937,-4.57031 -9.10156,-4.57031 z m 0,-6.09375 q 9.375,0 14.72656,6.09375 5.35156,6.09375 5.35156,16.875 0,10.74218 -5.35156,16.875 -5.35156,6.09375 -14.72656,6.09375 -9.41406,0 -14.76563,-6.09375 -5.3125,-6.13282 -5.3125,-16.875 0,-10.78125 5.3125,-16.875 5.35157,-6.09375 14.76563,-6.09375 z" />
      <path
         id="path3769"
         style="font-size:80px;text-align:center;text-anchor:middle"
         d="m 108.46964,610.37 q -8.710935,0 -12.07031,1.99218 -3.359375,1.99219 -3.359375,6.79688 0,3.82812 2.5,6.09375 2.539063,2.22656 6.875005,2.22656 5.97656,0 9.57031,-4.21875 3.63281,-4.25781 3.63281,-11.28906 l 0,-1.60156 -7.14844,0 z m 14.33594,-2.96875 0,24.96093 -7.1875,0 0,-6.64062 q -2.46094,3.98437 -6.13281,5.89844 -3.67188,1.875 -8.98438,1.875 -6.718747,0 -10.703122,-3.75 -3.945313,-3.78907 -3.945313,-10.11719 0,-7.38281 4.921875,-11.13281 4.960938,-3.75 14.76563,-3.75 l 10.07812,0 0,-0.70313 q 0,-4.96094 -3.28125,-7.65625 -3.24219,-2.73437 -9.14062,-2.73437 -3.750005,0 -7.304692,0.89843 -3.554688,0.89844 -6.835938,2.69532 l 0,-6.64063 q 3.945313,-1.52344 7.65625,-2.26562 3.71094,-0.78125 7.22656,-0.78125 9.49219,0 14.17969,4.92187 4.6875,4.92188 4.6875,14.92188 z" />
      <path
         id="path3771"
         style="letter-spacing:20.57999992px"
         d="m 212.48714,609.97937 q 0,-7.8125 -3.24218,-12.10937 -3.20313,-4.29688 -9.02344,-4.29688 -5.78125,0 -9.02344,4.29688 -3.20312,4.29687 -3.20312,12.10937 0,7.77344 3.20312,12.07031 3.24219,4.29688 9.02344,4.29688 5.82031,0 9.02344,-4.29688 3.24218,-4.29687 3.24218,-12.07031 z m 7.1875,16.95313 q 0,11.17187 -4.96093,16.60156 -4.96094,5.46875 -15.19532,5.46875 -3.78906,0 -7.14843,-0.58594 -3.35938,-0.54687 -6.52344,-1.71875 l 0,-6.99219 q 3.16406,1.71875 6.25,2.53907 3.08594,0.82031 6.28906,0.82031 7.07031,0 10.58594,-3.71094 3.51562,-3.67187 3.51562,-11.13281 l 0,-3.55469 q -2.22656,3.86719 -5.70312,5.78125 -3.47656,1.91406 -8.32031,1.91406 -8.04688,0 -12.96875,-6.13281 -4.92188,-6.13281 -4.92188,-16.25 0,-10.15625 4.92188,-16.28906 4.92187,-6.13281 12.96875,-6.13281 4.84375,0 8.32031,1.91406 3.47656,1.91406 5.70312,5.78125 l 0,-6.64063 7.1875,0 0,38.32032 z" />
      <path
         id="path3773"
         style="letter-spacing:20.57999992px"
         d="m 272.01246,593.65125 q -5.78125,0 -9.14063,4.53125 -3.35937,4.49218 -3.35937,12.34375 0,7.85156 3.32031,12.38281 3.35938,4.49219 9.17969,4.49219 5.74219,0 9.10156,-4.53125 3.35938,-4.53125 3.35938,-12.34375 0,-7.77344 -3.35938,-12.30469 -3.35937,-4.57031 -9.10156,-4.57031 z m 0,-6.09375 q 9.375,0 14.72656,6.09375 5.35156,6.09375 5.35156,16.875 0,10.74218 -5.35156,16.875 -5.35156,6.09375 -14.72656,6.09375 -9.41406,0 -14.76563,-6.09375 -5.3125,-6.13282 -5.3125,-16.875 0,-10.78125 5.3125,-16.875 5.35157,-6.09375 14.76563,-6.09375 z" />
      <path
         id="path3775"
         style="letter-spacing:20.57999992px"
         d="m 341.49871,593.65125 q -5.78125,0 -9.14062,4.53125 -3.35938,4.49218 -3.35938,12.34375 0,7.85156 3.32031,12.38281 3.35938,4.49219 9.17969,4.49219 5.74219,0 9.10156,-4.53125 3.35938,-4.53125 3.35938,-12.34375 0,-7.77344 -3.35938,-12.30469 -3.35937,-4.57031 -9.10156,-4.57031 z m 0,-6.09375 q 9.375,0 14.72656,6.09375 5.35157,6.09375 5.35157,16.875 0,10.74218 -5.35157,16.875 -5.35156,6.09375 -14.72656,6.09375 -9.41406,0 -14.76562,-6.09375 -5.3125,-6.13282 -5.3125,-16.875 0,-10.78125 5.3125,-16.875 5.35156,-6.09375 14.76562,-6.09375 z" />
      <path
         id="path3777"
         style="letter-spacing:20.57999992px"
         d="m 422.8209,595.25281 0,-23.67188 7.1875,0 0,60.78125 -7.1875,0 0,-6.5625 q -2.26563,3.90625 -5.74219,5.82032 -3.4375,1.875 -8.28125,1.875 -7.92969,0 -12.92969,-6.32813 -4.96093,-6.32812 -4.96093,-16.64062 0,-10.3125 4.96093,-16.64063 5,-6.32812 12.92969,-6.32812 4.84375,0 8.28125,1.91406 3.47656,1.875 5.74219,5.78125 z m -24.49219,15.27344 q 0,7.92968 3.24219,12.46093 3.28125,4.49219 8.98437,4.49219 5.70313,0 8.98438,-4.49219 3.28125,-4.53125 3.28125,-12.46093 0,-7.92969 -3.28125,-12.42188 -3.28125,-4.53125 -8.98438,-4.53125 -5.70312,0 -8.98437,4.53125 -3.24219,4.49219 -3.24219,12.42188 z" />
      <path
         id="path3779"
         style="letter-spacing:20.57999992px"
         d="m 531.32465,610.37 q -8.71093,0 -12.07031,1.99218 -3.35937,1.99219 -3.35937,6.79688 0,3.82812 2.5,6.09375 2.53906,2.22656 6.875,2.22656 5.97656,0 9.57031,-4.21875 3.63281,-4.25781 3.63281,-11.28906 l 0,-1.60156 -7.14844,0 z m 14.33594,-2.96875 0,24.96093 -7.1875,0 0,-6.64062 q -2.46094,3.98437 -6.13281,5.89844 -3.67188,1.875 -8.98438,1.875 -6.71875,0 -10.70312,-3.75 -3.94531,-3.78907 -3.94531,-10.11719 0,-7.38281 4.92187,-11.13281 4.96094,-3.75 14.76563,-3.75 l 10.07812,0 0,-0.70313 q 0,-4.96094 -3.28125,-7.65625 -3.24219,-2.73437 -9.14062,-2.73437 -3.75,0 -7.30469,0.89843 -3.55469,0.89844 -6.83594,2.69532 l 0,-6.64063 q 3.94531,-1.52344 7.65625,-2.26562 3.71094,-0.78125 7.22656,-0.78125 9.49219,0 14.17969,4.92187 4.6875,4.92188 4.6875,14.92188 z" />
      <path
         id="path3781"
         style="letter-spacing:20.57999992px"
         d="m 608.97495,589.90125 0,6.79687 q -3.04687,-1.5625 -6.32812,-2.34375 -3.28125,-0.78125 -6.79688,-0.78125 -5.35156,0 -8.04687,1.64063 -2.65625,1.64062 -2.65625,4.92187 0,2.5 1.91406,3.94531 1.91406,1.40625 7.69531,2.69532 l 2.46094,0.54687 q 7.65625,1.64063 10.85938,4.64844 3.24218,2.96875 3.24218,8.32031 0,6.09375 -4.84375,9.64844 -4.80468,3.55469 -13.24218,3.55469 -3.51563,0 -7.34375,-0.70313 -3.78907,-0.66406 -8.00782,-2.03125 l 0,-7.42187 q 3.98438,2.07031 7.85157,3.125 3.86718,1.01562 7.65625,1.01562 5.07812,0 7.8125,-1.71875 2.73437,-1.75781 2.73437,-4.92187 0,-2.92969 -1.99219,-4.49219 -1.95312,-1.5625 -8.63281,-3.00781 l -2.5,-0.58594 q -6.67969,-1.40625 -9.64844,-4.29688 -2.96875,-2.92968 -2.96875,-8.00781 0,-6.17187 4.375,-9.53125 4.375,-3.35937 12.42188,-3.35937 3.98437,0 7.5,0.58593 3.51562,0.58594 6.48437,1.75782 z" />
      <path
         id="path3783"
         style="letter-spacing:20.57999992px"
         d="m 671.27372,589.90125 0,6.79687 q -3.04688,-1.5625 -6.32813,-2.34375 -3.28125,-0.78125 -6.79687,-0.78125 -5.35156,0 -8.04688,1.64063 -2.65625,1.64062 -2.65625,4.92187 0,2.5 1.91407,3.94531 1.91406,1.40625 7.69531,2.69532 l 2.46094,0.54687 q 7.65625,1.64063 10.85937,4.64844 3.24219,2.96875 3.24219,8.32031 0,6.09375 -4.84375,9.64844 -4.80469,3.55469 -13.24219,3.55469 -3.51562,0 -7.34375,-0.70313 -3.78906,-0.66406 -8.00781,-2.03125 l 0,-7.42187 q 3.98437,2.07031 7.85156,3.125 3.86719,1.01562 7.65625,1.01562 5.07813,0 7.8125,-1.71875 2.73438,-1.75781 2.73438,-4.92187 0,-2.92969 -1.99219,-4.49219 -1.95313,-1.5625 -8.63281,-3.00781 l -2.5,-0.58594 q -6.67969,-1.40625 -9.64844,-4.29688 -2.96875,-2.92968 -2.96875,-8.00781 0,-6.17187 4.375,-9.53125 4.375,-3.35937 12.42187,-3.35937 3.98438,0 7.5,0.58593 3.51563,0.58594 6.48438,1.75782 z" />
      <path
         id="path3785"
         style="font-size:80px;text-align:center;letter-spacing:40px;text-anchor:middle"
         d="m 88.25058,688.61218 7.1875,0 0,44.53125 q 0,8.35938 -3.203125,12.10938 -3.164063,3.75 -10.234375,3.75 l -2.734375,0 0,-6.09375 1.914062,0 q 4.101563,0 5.585938,-1.91406 1.484375,-1.875 1.484375,-7.85157 l 0,-44.53125 z m 0,-17.03125 7.1875,0 0,9.10157 -7.1875,0 0,-9.10157 z" />
      <path
         id="path3787"
         style="font-size:80px;text-align:center;letter-spacing:40px;text-anchor:middle"
         d="m 167.3912,693.65125 q -5.78125,0 -9.14062,4.53125 -3.35938,4.49218 -3.35938,12.34375 0,7.85156 3.32032,12.38281 3.35937,4.49219 9.17968,4.49219 5.74219,0 9.10157,-4.53125 3.35937,-4.53125 3.35937,-12.34375 0,-7.77344 -3.35937,-12.30469 -3.35938,-4.57031 -9.10157,-4.57031 z m 0,-6.09375 q 9.375,0 14.72657,6.09375 5.35156,6.09375 5.35156,16.875 0,10.74218 -5.35156,16.875 -5.35157,6.09375 -14.72657,6.09375 -9.41406,0 -14.76562,-6.09375 -5.3125,-6.13282 -5.3125,-16.875 0,-10.78125 5.3125,-16.875 5.35156,-6.09375 14.76562,-6.09375 z" />
      <path
         id="path3789"
         style="font-size:80px;text-align:center;letter-spacing:40px;text-anchor:middle"
         d="m 270.75058,710.52625 q 0,-7.92969 -3.28125,-12.42188 -3.24219,-4.53125 -8.94531,-4.53125 -5.70313,0 -8.98438,4.53125 -3.24219,4.49219 -3.24219,12.42188 0,7.92968 3.24219,12.46093 3.28125,4.49219 8.98438,4.49219 5.70312,0 8.94531,-4.49219 3.28125,-4.53125 3.28125,-12.46093 z m -24.45313,-15.27344 q 2.26563,-3.90625 5.70313,-5.78125 3.47656,-1.91406 8.28125,-1.91406 7.96875,0 12.92969,6.32812 5,6.32813 5,16.64063 0,10.3125 -5,16.64062 -4.96094,6.32813 -12.92969,6.32813 -4.80469,0 -8.28125,-1.875 -3.4375,-1.91407 -5.70313,-5.82032 l 0,6.5625 -7.22656,0 0,-60.78125 7.22656,0 0,23.67188 z" />
      <path
         id="path3791"
         style="font-size:80px;text-align:center;letter-spacing:40px;text-anchor:middle"
         d="m 391.41464,688.61218 7.1875,0 8.98438,34.14063 8.94531,-34.14063 8.47656,0 8.98438,34.14063 8.94531,-34.14063 7.1875,0 -11.44531,43.75 -8.47657,0 -9.41406,-35.85937 -9.45312,35.85937 -8.47657,0 -11.44531,-43.75 z" />
      <path
         id="path3793"
         style="font-size:80px;text-align:center;letter-spacing:40px;text-anchor:middle"
         d="m 501.06308,688.61218 7.1875,0 0,43.75 -7.1875,0 0,-43.75 z m 0,-17.03125 7.1875,0 0,9.10157 -7.1875,0 0,-9.10157 z" />
      <path
         id="path3795"
         style="font-size:80px;text-align:center;letter-spacing:40px;text-anchor:middle"
         d="m 570.35995,676.19031 0,12.42187 14.80469,0 0,5.58594 -14.80469,0 0,23.75 q 0,5.35156 1.44532,6.875 1.48437,1.52344 5.97656,1.52344 l 7.38281,0 0,6.01562 -7.38281,0 q -8.32031,0 -11.48438,-3.08593 -3.16406,-3.125 -3.16406,-11.32813 l 0,-23.75 -5.27344,0 0,-5.58594 5.27344,0 0,-12.42187 7.22656,0 z" />
      <path
         id="path3797"
         style="font-size:80px;text-align:center;letter-spacing:40px;text-anchor:middle"
         d="m 671.02402,705.95593 0,26.40625 -7.1875,0 0,-26.17187 q 0,-6.21094 -2.42188,-9.29688 -2.42187,-3.08593 -7.26562,-3.08593 -5.82032,0 -9.17969,3.71093 -3.35938,3.71094 -3.35938,10.11719 l 0,24.72656 -7.22656,0 0,-60.78125 7.22656,0 0,23.82813 q 2.57813,-3.94531 6.05469,-5.89844 3.51563,-1.95312 8.08594,-1.95312 7.53906,0 11.40625,4.6875 3.86719,4.64843 3.86719,13.71093 z" />
      <path
         id="path3799"
         style="font-size:80px;text-align:center;letter-spacing:33.27999878px;text-anchor:middle"
         d="m 126.22371,778.53406 0,8.32031 q -3.98438,-3.71094 -8.51563,-5.54687 -4.49218,-1.83594 -9.57031,-1.83594 -9.999998,0 -15.312498,6.13281 -5.3125,6.09375 -5.3125,17.65625 0,11.52344 5.3125,17.65625 5.3125,6.09375 15.312498,6.09375 5.07813,0 9.57031,-1.83594 4.53125,-1.83593 8.51563,-5.54687 l 0,8.24219 q -4.14063,2.8125 -8.78906,4.21875 -4.60938,1.40625 -9.76563,1.40625 -13.242186,0 -20.859373,-8.08594 -7.617188,-8.125 -7.617188,-22.14844 0,-14.0625 7.617188,-22.14844 7.617187,-8.125 20.859373,-8.125 5.23438,0 9.84375,1.40625 4.64844,1.36719 8.71094,4.14063 z" />
      <path
         id="path3801"
         style="font-size:80px;text-align:center;letter-spacing:33.27999878px;text-anchor:middle"
         d="m 207.82402,805.95593 0,26.40625 -7.1875,0 0,-26.17187 q 0,-6.21094 -2.42187,-9.29688 -2.42188,-3.08593 -7.26563,-3.08593 -5.82031,0 -9.17969,3.71093 -3.35937,3.71094 -3.35937,10.11719 l 0,24.72656 -7.22656,0 0,-60.78125 7.22656,0 0,23.82813 q 2.57812,-3.94531 6.05469,-5.89844 3.51562,-1.95312 8.08593,-1.95312 7.53907,0 11.40625,4.6875 3.86719,4.64843 3.86719,13.71093 z" />
      <path
         id="path3803"
         style="font-size:80px;text-align:center;letter-spacing:33.27999878px;text-anchor:middle"
         d="m 275.40089,810.37 q -8.71093,0 -12.07031,1.99218 -3.35937,1.99219 -3.35937,6.79688 0,3.82812 2.5,6.09375 2.53906,2.22656 6.875,2.22656 5.97656,0 9.57031,-4.21875 3.63281,-4.25781 3.63281,-11.28906 l 0,-1.60156 -7.14844,0 z m 14.33594,-2.96875 0,24.96093 -7.1875,0 0,-6.64062 q -2.46094,3.98437 -6.13281,5.89844 -3.67188,1.875 -8.98438,1.875 -6.71875,0 -10.70312,-3.75 -3.94531,-3.78907 -3.94531,-10.11719 0,-7.38281 4.92187,-11.13281 4.96094,-3.75 14.76563,-3.75 l 10.07812,0 0,-0.70313 q 0,-4.96094 -3.28125,-7.65625 -3.24219,-2.73437 -9.14062,-2.73437 -3.75,0 -7.30469,0.89843 -3.55469,0.89844 -6.83594,2.69532 l 0,-6.64063 q 3.94531,-1.52344 7.65625,-2.26562 3.71094,-0.78125 7.22656,-0.78125 9.49219,0 14.17969,4.92187 4.6875,4.92188 4.6875,14.92188 z" />
      <path
         id="path3805"
         style="font-size:80px;text-align:center;letter-spacing:33.27999878px;text-anchor:middle"
         d="m 374.22777,805.95593 0,26.40625 -7.1875,0 0,-26.17187 q 0,-6.21094 -2.42188,-9.29688 -2.42187,-3.08593 -7.26562,-3.08593 -5.82031,0 -9.17969,3.71093 -3.35937,3.71094 -3.35937,10.11719 l 0,24.72656 -7.22657,0 0,-43.75 7.22657,0 0,6.79688 q 2.57812,-3.94531 6.05468,-5.89844 3.51563,-1.95312 8.08594,-1.95312 7.53906,0 11.40625,4.6875 3.86719,4.64843 3.86719,13.71093 z" />
      <path
         id="path3807"
         style="font-size:80px;text-align:center;letter-spacing:33.27999878px;text-anchor:middle"
         d="m 453.4062,790.29187 0,6.71875 q -3.04687,-1.67969 -6.13281,-2.5 -3.04687,-0.85937 -6.17187,-0.85937 -6.99219,0 -10.85938,4.45312 -3.86719,4.41406 -3.86719,12.42188 0,8.00781 3.86719,12.46093 3.86719,4.41407 10.85938,4.41407 3.125,0 6.17187,-0.82032 3.08594,-0.85937 6.13281,-2.53906 l 0,6.64063 q -3.00781,1.40625 -6.25,2.10937 -3.20312,0.70313 -6.83593,0.70313 -9.88282,0 -15.70313,-6.21094 -5.82031,-6.21094 -5.82031,-16.75781 0,-10.70313 5.85937,-16.83594 5.89844,-6.13281 16.13282,-6.13281 3.32031,0 6.48437,0.70312 3.16406,0.66406 6.13281,2.03125 z" />
      <path
         id="path3809"
         style="font-size:80px;text-align:center;letter-spacing:33.27999878px;text-anchor:middle"
         d="m 536.6862,808.69031 0,3.51562 -33.04687,0 q 0.46875,7.42188 4.45312,11.32813 4.02344,3.86719 11.17188,3.86719 4.14062,0 8.00781,-1.01563 3.90625,-1.01562 7.73438,-3.04687 l 0,6.79687 q -3.86719,1.64063 -7.92969,2.5 -4.0625,0.85938 -8.24219,0.85938 -10.46875,0 -16.60156,-6.09375 -6.09375,-6.09375 -6.09375,-16.48438 0,-10.74219 5.78125,-17.03125 5.82031,-6.32812 15.66406,-6.32812 8.82813,0 13.94531,5.70312 5.15625,5.66406 5.15625,15.42969 z m -7.1875,-2.10938 q -0.0781,-5.89843 -3.32031,-9.41406 -3.20312,-3.51562 -8.51562,-3.51562 -6.01563,0 -9.64844,3.39843 -3.59375,3.39844 -4.14063,9.57032 l 25.625,-0.0391 z" />
      <path
         id="path3811"
         style="font-size:80px;text-align:center;letter-spacing:33.27999878px;text-anchor:middle"
         d="m 665.43367,800.91687 q 5.66406,1.21094 8.82813,5.03906 3.20312,3.82813 3.20312,9.45313 0,8.63281 -5.9375,13.35937 -5.9375,4.72657 -16.875,4.72657 -3.67187,0 -7.57812,-0.74219 -3.86719,-0.70313 -8.00782,-2.14844 l 0,-7.61719 q 3.28125,1.91407 7.1875,2.89063 3.90625,0.97656 8.16407,0.97656 7.42187,0 11.28906,-2.92969 3.90625,-2.92968 3.90625,-8.51562 0,-5.15625 -3.63281,-8.04688 -3.59375,-2.92968 -10.03907,-2.92968 l -6.79687,0 0,-6.48438 7.10937,0 q 5.82032,0 8.90625,-2.30469 3.08594,-2.34375 3.08594,-6.71875 0,-4.49218 -3.20312,-6.875 -3.16407,-2.42187 -9.10157,-2.42187 -3.24218,0 -6.95312,0.70312 -3.71094,0.70313 -8.16406,2.1875 l 0,-7.03125 q 4.49218,-1.25 8.39843,-1.875 3.94532,-0.625 7.42188,-0.625 8.98437,0 14.21875,4.10157 5.23437,4.0625 5.23437,11.01562 0,4.84375 -2.77343,8.20313 -2.77344,3.32031 -7.89063,4.60937 z" />
    </g>
  </g>
</svg>
