<?xml version="1.0" encoding="UTF-8" standalone="no"?>
<svg xmlns:rdf="http://www.w3.org/1999/02/22-rdf-syntax-ns#" xmlns="http://www.w3.org/2000/svg" height="750" width="750" version="1.1" xmlns:cc="http://creativecommons.org/ns#" xmlns:dc="http://purl.org/dc/elements/1.1/" viewBox="0 0 750.00001 750.00001">
 <g transform="translate(0 -302.36)">
  <g>
   <path d="m70.868 474.04h49.336v6.6406h-20.703v51.68h-7.9297v-51.68h-20.703v-6.6406z"/>
   <path d="m163.91 505.96v26.406h-7.1875v-26.172q0-6.2109-2.4219-9.2969-2.4219-3.0859-7.2656-3.0859-5.8203 0-9.1797 3.7109t-3.3594 10.117v24.727h-7.2266v-60.781h7.2266v23.828q2.5781-3.9453 6.0547-5.8984 3.5156-1.9531 8.0859-1.9531 7.5391 0 11.406 4.6875 3.8672 4.6484 3.8672 13.711z"/>
   <path d="m215.75 508.69v3.5156h-33.047q0.46875 7.4219 4.4531 11.328 4.0234 3.8672 11.172 3.8672 4.1406 0 8.0078-1.0156 3.9062-1.0156 7.7344-3.0469v6.7969q-3.8672 1.6406-7.9297 2.5-4.0625 0.85938-8.2422 0.85938-10.469 0-16.602-6.0938-6.0938-6.0938-6.0938-16.484 0-10.742 5.7812-17.031 5.8203-6.3281 15.664-6.3281 8.8281 0 13.945 5.7031 5.1562 5.6641 5.1562 15.43zm-7.1875-2.1094q-0.0781-5.8984-3.3203-9.4141-3.2031-3.5156-8.5156-3.5156-6.0156 0-9.6484 3.3984-3.5938 3.3984-4.1406 9.5703l25.625-0.0391z"/>
   <path d="m245.75 536.42q-3.0469 7.8125-5.9375 10.195-2.8906 2.3828-7.7344 2.3828h-5.7422v-6.0156h4.2188q2.9688 0 4.6094-1.4062t3.6328-6.6406l1.2891-3.2812-17.695-43.047h7.6172l13.672 34.219 13.672-34.219h7.6172l-19.219 47.812z"/>
   <path d="m328.25 489.9v6.7969q-3.0469-1.5625-6.3281-2.3438-3.2812-0.78125-6.7969-0.78125-5.3516 0-8.0469 1.6406-2.6562 1.6406-2.6562 4.9219 0 2.5 1.9141 3.9453 1.9141 1.4062 7.6953 2.6953l2.4609 0.54687q7.6562 1.6406 10.859 4.6484 3.2422 2.9688 3.2422 8.3203 0 6.0938-4.8438 9.6484-4.8047 3.5547-13.242 3.5547-3.5156 0-7.3438-0.70313-3.7891-0.66406-8.0078-2.0312v-7.4219q3.9844 2.0703 7.8516 3.125 3.8672 1.0156 7.6562 1.0156 5.0781 0 7.8125-1.7188 2.7344-1.7578 2.7344-4.9219 0-2.9297-1.9922-4.4922-1.9531-1.5625-8.6328-3.0078l-2.5-0.58594q-6.6797-1.4062-9.6484-4.2969-2.9688-2.9297-2.9688-8.0078 0-6.1719 4.375-9.5312 4.375-3.3594 12.422-3.3594 3.9844 0 7.5 0.58593 3.5156 0.58594 6.4844 1.7578z"/>
   <path d="m361.96 510.37q-8.7109 0-12.07 1.9922-3.3594 1.9922-3.3594 6.7969 0 3.8281 2.5 6.0938 2.5391 2.2266 6.875 2.2266 5.9766 0 9.5703-4.2188 3.6328-4.2578 3.6328-11.289v-1.6016h-7.1484zm14.336-2.9688v24.961h-7.1875v-6.6406q-2.4609 3.9844-6.1328 5.8984-3.6719 1.875-8.9844 1.875-6.7188 0-10.703-3.75-3.9453-3.7891-3.9453-10.117 0-7.3828 4.9219-11.133 4.9609-3.75 14.766-3.75h10.078v-0.70313q0-4.9609-3.2812-7.6562-3.2422-2.7344-9.1406-2.7344-3.75 0-7.3047 0.89843-3.5547 0.89844-6.8359 2.6953v-6.6406q3.9453-1.5234 7.6562-2.2656 3.7109-0.78125 7.2266-0.78125 9.4922 0 14.18 4.9219 4.6875 4.9219 4.6875 14.922z"/>
   <path d="m391.14 488.61h7.1875v43.75h-7.1875v-43.75zm0-17.031h7.1875v9.1016h-7.1875v-9.1016z"/>
   <path d="m442.12 495.25v-23.672h7.1875v60.781h-7.1875v-6.5625q-2.2656 3.9062-5.7422 5.8203-3.4375 1.875-8.2812 1.875-7.9297 0-12.93-6.3281-4.9609-6.3281-4.9609-16.641 0-10.312 4.9609-16.641 5-6.3281 12.93-6.3281 4.8438 0 8.2812 1.9141 3.4766 1.875 5.7422 5.7812zm-24.492 15.273q0 7.9297 3.2422 12.461 3.2812 4.4922 8.9844 4.4922 5.7031 0 8.9844-4.4922 3.2812-4.5312 3.2812-12.461 0-7.9297-3.2812-12.422-3.2812-4.5312-8.9844-4.5312-5.7031 0-8.9844 4.5312-3.2422 4.4922-3.2422 12.422z"/>
   <path d="m496.69 476.19v12.422h14.805v5.5859h-14.805v23.75q0 5.3516 1.4453 6.875 1.4844 1.5234 5.9766 1.5234h7.3828v6.0156h-7.3828q-8.3203 0-11.484-3.0859-3.1641-3.125-3.1641-11.328v-23.75h-5.2734v-5.5859h5.2734v-12.422h7.2266z"/>
   <path d="m537.94 493.65q-5.7812 0-9.1406 4.5312-3.3594 4.4922-3.3594 12.344 0 7.8516 3.3203 12.383 3.3594 4.4922 9.1797 4.4922 5.7422 0 9.1016-4.5312t3.3594-12.344q0-7.7734-3.3594-12.305-3.3594-4.5703-9.1016-4.5703zm0-6.0938q9.375 0 14.727 6.0938 5.3516 6.0938 5.3516 16.875 0 10.742-5.3516 16.875-5.3516 6.0938-14.727 6.0938-9.4141 0-14.766-6.0938-5.3125-6.1328-5.3125-16.875 0-10.781 5.3125-16.875 5.3516-6.0938 14.766-6.0938z"/>
   <path d="m624.15 495.25v-23.672h7.1875v60.781h-7.1875v-6.5625q-2.2656 3.9062-5.7422 5.8203-3.4375 1.875-8.2812 1.875-7.9297 0-12.93-6.3281-4.9609-6.3281-4.9609-16.641 0-10.312 4.9609-16.641 5-6.3281 12.93-6.3281 4.8438 0 8.2812 1.9141 3.4766 1.875 5.7422 5.7812zm-24.492 15.273q0 7.9297 3.2422 12.461 3.2812 4.4922 8.9844 4.4922 5.7031 0 8.9844-4.4922 3.2812-4.5312 3.2812-12.461 0-7.9297-3.2812-12.422-3.2812-4.5312-8.9844-4.5312-5.7031 0-8.9844 4.5312-3.2422 4.4922-3.2422 12.422z"/>
   <path d="m663.09 493.65q-5.7812 0-9.1406 4.5312-3.3594 4.4922-3.3594 12.344 0 7.8516 3.3203 12.383 3.3594 4.4922 9.1797 4.4922 5.7422 0 9.1016-4.5312t3.3594-12.344q0-7.7734-3.3594-12.305-3.3594-4.5703-9.1016-4.5703zm0-6.0938q9.375 0 14.727 6.0938 5.3516 6.0938 5.3516 16.875 0 10.742-5.3516 16.875-5.3516 6.0938-14.727 6.0938-9.4141 0-14.766-6.0938-5.3125-6.1328-5.3125-16.875 0-10.781 5.3125-16.875 5.3516-6.0938 14.766-6.0938z"/>
   <path d="m108.47 610.37q-8.7109 0-12.07 1.9922-3.3594 1.9922-3.3594 6.7969 0 3.8281 2.5 6.0938 2.5391 2.2266 6.875 2.2266 5.9766 0 9.5703-4.2188 3.6328-4.2578 3.6328-11.289v-1.6016h-7.1484zm14.336-2.9688v24.961h-7.1875v-6.6406q-2.4609 3.9844-6.1328 5.8984-3.6719 1.875-8.9844 1.875-6.7187 0-10.703-3.75-3.9453-3.7891-3.9453-10.117 0-7.3828 4.9219-11.133 4.9609-3.75 14.766-3.75h10.078v-0.70313q0-4.9609-3.2812-7.6562-3.2422-2.7344-9.1406-2.7344-3.75 0-7.3047 0.89843-3.5547 0.89844-6.8359 2.6953v-6.6406q3.9453-1.5234 7.6562-2.2656 3.7109-0.78125 7.2266-0.78125 9.4922 0 14.18 4.9219 4.6875 4.9219 4.6875 14.922z"/>
   <path d="m212.49 609.98q0-7.8125-3.2422-12.109-3.2031-4.2969-9.0234-4.2969-5.7812 0-9.0234 4.2969-3.2031 4.2969-3.2031 12.109 0 7.7734 3.2031 12.07 3.2422 4.2969 9.0234 4.2969 5.8203 0 9.0234-4.2969 3.2422-4.2969 3.2422-12.07zm7.1875 16.953q0 11.172-4.9609 16.602-4.9609 5.4688-15.195 5.4688-3.7891 0-7.1484-0.58594-3.3594-0.54687-6.5234-1.7188v-6.9922q3.1641 1.7188 6.25 2.5391 3.0859 0.82031 6.2891 0.82031 7.0703 0 10.586-3.7109 3.5156-3.6719 3.5156-11.133v-3.5547q-2.2266 3.8672-5.7031 5.7812-3.4766 1.9141-8.3203 1.9141-8.0469 0-12.969-6.1328-4.9219-6.1328-4.9219-16.25 0-10.156 4.9219-16.289 4.9219-6.1328 12.969-6.1328 4.8438 0 8.3203 1.9141 3.4766 1.9141 5.7031 5.7812v-6.6406h7.1875v38.32z"/>
   <path d="m272.01 593.65q-5.7812 0-9.1406 4.5312-3.3594 4.4922-3.3594 12.344 0 7.8516 3.3203 12.383 3.3594 4.4922 9.1797 4.4922 5.7422 0 9.1016-4.5312t3.3594-12.344q0-7.7734-3.3594-12.305-3.3594-4.5703-9.1016-4.5703zm0-6.0938q9.375 0 14.727 6.0938 5.3516 6.0938 5.3516 16.875 0 10.742-5.3516 16.875-5.3516 6.0938-14.727 6.0938-9.4141 0-14.766-6.0938-5.3125-6.1328-5.3125-16.875 0-10.781 5.3125-16.875 5.3516-6.0938 14.766-6.0938z"/>
   <path d="m341.5 593.65q-5.7812 0-9.1406 4.5312-3.3594 4.4922-3.3594 12.344 0 7.8516 3.3203 12.383 3.3594 4.4922 9.1797 4.4922 5.7422 0 9.1016-4.5312t3.3594-12.344q0-7.7734-3.3594-12.305-3.3594-4.5703-9.1016-4.5703zm0-6.0938q9.375 0 14.727 6.0938 5.3516 6.0938 5.3516 16.875 0 10.742-5.3516 16.875-5.3516 6.0938-14.727 6.0938-9.4141 0-14.766-6.0938-5.3125-6.1328-5.3125-16.875 0-10.781 5.3125-16.875 5.3516-6.0938 14.766-6.0938z"/>
   <path d="m422.82 595.25v-23.672h7.1875v60.781h-7.1875v-6.5625q-2.2656 3.9062-5.7422 5.8203-3.4375 1.875-8.2812 1.875-7.9297 0-12.93-6.3281-4.9609-6.3281-4.9609-16.641 0-10.312 4.9609-16.641 5-6.3281 12.93-6.3281 4.8438 0 8.2812 1.9141 3.4766 1.875 5.7422 5.7812zm-24.492 15.273q0 7.9297 3.2422 12.461 3.2812 4.4922 8.9844 4.4922 5.7031 0 8.9844-4.4922 3.2812-4.5312 3.2812-12.461 0-7.9297-3.2812-12.422-3.2812-4.5312-8.9844-4.5312-5.7031 0-8.9844 4.5312-3.2422 4.4922-3.2422 12.422z"/>
   <path d="m531.32 610.37q-8.7109 0-12.07 1.9922-3.3594 1.9922-3.3594 6.7969 0 3.8281 2.5 6.0938 2.5391 2.2266 6.875 2.2266 5.9766 0 9.5703-4.2188 3.6328-4.2578 3.6328-11.289v-1.6016h-7.1484zm14.336-2.9688v24.961h-7.1875v-6.6406q-2.4609 3.9844-6.1328 5.8984-3.6719 1.875-8.9844 1.875-6.7188 0-10.703-3.75-3.9453-3.7891-3.9453-10.117 0-7.3828 4.9219-11.133 4.9609-3.75 14.766-3.75h10.078v-0.70313q0-4.9609-3.2812-7.6562-3.2422-2.7344-9.1406-2.7344-3.75 0-7.3047 0.89843-3.5547 0.89844-6.8359 2.6953v-6.6406q3.9453-1.5234 7.6562-2.2656 3.7109-0.78125 7.2266-0.78125 9.4922 0 14.18 4.9219 4.6875 4.9219 4.6875 14.922z"/>
   <path d="m608.97 589.9v6.7969q-3.0469-1.5625-6.3281-2.3438-3.2812-0.78125-6.7969-0.78125-5.3516 0-8.0469 1.6406-2.6562 1.6406-2.6562 4.9219 0 2.5 1.9141 3.9453 1.9141 1.4062 7.6953 2.6953l2.4609 0.54687q7.6562 1.6406 10.859 4.6484 3.2422 2.9688 3.2422 8.3203 0 6.0938-4.8438 9.6484-4.8047 3.5547-13.242 3.5547-3.5156 0-7.3438-0.70313-3.7891-0.66406-8.0078-2.0312v-7.4219q3.9844 2.0703 7.8516 3.125 3.8672 1.0156 7.6562 1.0156 5.0781 0 7.8125-1.7188 2.7344-1.7578 2.7344-4.9219 0-2.9297-1.9922-4.4922-1.9531-1.5625-8.6328-3.0078l-2.5-0.58594q-6.6797-1.4062-9.6484-4.2969-2.9688-2.9297-2.9688-8.0078 0-6.1719 4.375-9.5312 4.375-3.3594 12.422-3.3594 3.9844 0 7.5 0.58593 3.5156 0.58594 6.4844 1.7578z"/>
   <path d="m671.27 589.9v6.7969q-3.0469-1.5625-6.3281-2.3438-3.2812-0.78125-6.7969-0.78125-5.3516 0-8.0469 1.6406-2.6562 1.6406-2.6562 4.9219 0 2.5 1.9141 3.9453 1.9141 1.4062 7.6953 2.6953l2.4609 0.54687q7.6562 1.6406 10.859 4.6484 3.2422 2.9688 3.2422 8.3203 0 6.0938-4.8438 9.6484-4.8047 3.5547-13.242 3.5547-3.5156 0-7.3438-0.70313-3.7891-0.66406-8.0078-2.0312v-7.4219q3.9844 2.0703 7.8516 3.125 3.8672 1.0156 7.6562 1.0156 5.0781 0 7.8125-1.7188 2.7344-1.7578 2.7344-4.9219 0-2.9297-1.9922-4.4922-1.9531-1.5625-8.6328-3.0078l-2.5-0.58594q-6.6797-1.4062-9.6484-4.2969-2.9688-2.9297-2.9688-8.0078 0-6.1719 4.375-9.5312 4.375-3.3594 12.422-3.3594 3.9844 0 7.5 0.58593 3.5156 0.58594 6.4844 1.7578z"/>
   <path d="m88.251 688.61h7.1875v44.531q0 8.3594-3.2031 12.109-3.1641 3.75-10.234 3.75h-2.7344v-6.0938h1.9141q4.1016 0 5.5859-1.9141 1.4844-1.875 1.4844-7.8516v-44.531zm0-17.031h7.1875v9.1016h-7.1875v-9.1016z"/>
   <path d="m167.39 693.65q-5.7812 0-9.1406 4.5312-3.3594 4.4922-3.3594 12.344 0 7.8516 3.3203 12.383 3.3594 4.4922 9.1797 4.4922 5.7422 0 9.1016-4.5312t3.3594-12.344q0-7.7734-3.3594-12.305-3.3594-4.5703-9.1016-4.5703zm0-6.0938q9.375 0 14.727 6.0938 5.3516 6.0938 5.3516 16.875 0 10.742-5.3516 16.875-5.3516 6.0938-14.727 6.0938-9.4141 0-14.766-6.0938-5.3125-6.1328-5.3125-16.875 0-10.781 5.3125-16.875 5.3516-6.0938 14.766-6.0938z"/>
   <path d="m270.75 710.53q0-7.9297-3.2812-12.422-3.2422-4.5312-8.9453-4.5312t-8.9844 4.5312q-3.2422 4.4922-3.2422 12.422 0 7.9297 3.2422 12.461 3.2812 4.4922 8.9844 4.4922 5.7031 0 8.9453-4.4922 3.2812-4.5312 3.2812-12.461zm-24.453-15.273q2.2656-3.9062 5.7031-5.7812 3.4766-1.9141 8.2812-1.9141 7.9688 0 12.93 6.3281 5 6.3281 5 16.641 0 10.312-5 16.641-4.9609 6.3281-12.93 6.3281-4.8047 0-8.2812-1.875-3.4375-1.9141-5.7031-5.8203v6.5625h-7.2266v-60.781h7.2266v23.672z"/>
   <path d="m391.41 688.61h7.1875l8.9844 34.141 8.9453-34.141h8.4766l8.9844 34.141 8.9453-34.141h7.1875l-11.445 43.75h-8.4766l-9.4141-35.859-9.4531 35.859h-8.4766l-11.445-43.75z"/>
   <path d="m501.06 688.61h7.1875v43.75h-7.1875v-43.75zm0-17.031h7.1875v9.1016h-7.1875v-9.1016z"/>
   <path d="m570.36 676.19v12.422h14.805v5.5859h-14.805v23.75q0 5.3516 1.4453 6.875 1.4844 1.5234 5.9766 1.5234h7.3828v6.0156h-7.3828q-8.3203 0-11.484-3.0859-3.1641-3.125-3.1641-11.328v-23.75h-5.2734v-5.5859h5.2734v-12.422h7.2266z"/>
   <path d="m671.02 705.96v26.406h-7.1875v-26.172q0-6.2109-2.4219-9.2969-2.4219-3.0859-7.2656-3.0859-5.8203 0-9.1797 3.7109t-3.3594 10.117v24.727h-7.2266v-60.781h7.2266v23.828q2.5781-3.9453 6.0547-5.8984 3.5156-1.9531 8.0859-1.9531 7.5391 0 11.406 4.6875 3.8672 4.6484 3.8672 13.711z"/>
   <path d="m126.22 778.53v8.3203q-3.9844-3.7109-8.5156-5.5469-4.4922-1.8359-9.5703-1.8359-10 0-15.312 6.1328-5.3125 6.0938-5.3125 17.656 0 11.523 5.3125 17.656 5.3125 6.0938 15.312 6.0938 5.0781 0 9.5703-1.8359 4.5312-1.8359 8.5156-5.5469v8.2422q-4.1406 2.8125-8.7891 4.2188-4.6094 1.4062-9.7656 1.4062-13.242 0-20.859-8.0859-7.6172-8.125-7.6172-22.148 0-14.062 7.6172-22.148 7.6172-8.125 20.859-8.125 5.2344 0 9.8438 1.4062 4.6484 1.3672 8.7109 4.1406z"/>
   <path d="m207.82 805.96v26.406h-7.1875v-26.172q0-6.2109-2.4219-9.2969-2.4219-3.0859-7.2656-3.0859-5.8203 0-9.1797 3.7109t-3.3594 10.117v24.727h-7.2266v-60.781h7.2266v23.828q2.5781-3.9453 6.0547-5.8984 3.5156-1.9531 8.0859-1.9531 7.5391 0 11.406 4.6875 3.8672 4.6484 3.8672 13.711z"/>
   <path d="m275.4 810.37q-8.7109 0-12.07 1.9922-3.3594 1.9922-3.3594 6.7969 0 3.8281 2.5 6.0938 2.5391 2.2266 6.875 2.2266 5.9766 0 9.5703-4.2188 3.6328-4.2578 3.6328-11.289v-1.6016h-7.1484zm14.336-2.9688v24.961h-7.1875v-6.6406q-2.4609 3.9844-6.1328 5.8984-3.6719 1.875-8.9844 1.875-6.7188 0-10.703-3.75-3.9453-3.7891-3.9453-10.117 0-7.3828 4.9219-11.133 4.9609-3.75 14.766-3.75h10.078v-0.70313q0-4.9609-3.2812-7.6562-3.2422-2.7344-9.1406-2.7344-3.75 0-7.3047 0.89843-3.5547 0.89844-6.8359 2.6953v-6.6406q3.9453-1.5234 7.6562-2.2656 3.7109-0.78125 7.2266-0.78125 9.4922 0 14.18 4.9219 4.6875 4.9219 4.6875 14.922z"/>
   <path d="m374.23 805.96v26.406h-7.1875v-26.172q0-6.2109-2.4219-9.2969-2.4219-3.0859-7.2656-3.0859-5.8203 0-9.1797 3.7109t-3.3594 10.117v24.727h-7.2266v-43.75h7.2266v6.7969q2.5781-3.9453 6.0547-5.8984 3.5156-1.9531 8.0859-1.9531 7.5391 0 11.406 4.6875 3.8672 4.6484 3.8672 13.711z"/>
   <path d="m453.41 790.29v6.7188q-3.0469-1.6797-6.1328-2.5-3.0469-0.85937-6.1719-0.85937-6.9922 0-10.859 4.4531-3.8672 4.4141-3.8672 12.422 0 8.0078 3.8672 12.461 3.8672 4.4141 10.859 4.4141 3.125 0 6.1719-0.82032 3.0859-0.85937 6.1328-2.5391v6.6406q-3.0078 1.4062-6.25 2.1094-3.2031 0.70313-6.8359 0.70313-9.8828 0-15.703-6.2109-5.8203-6.2109-5.8203-16.758 0-10.703 5.8594-16.836 5.8984-6.1328 16.133-6.1328 3.3203 0 6.4844 0.70312 3.1641 0.66406 6.1328 2.0312z"/>
   <path d="m536.69 808.69v3.5156h-33.047q0.46875 7.4219 4.4531 11.328 4.0234 3.8672 11.172 3.8672 4.1406 0 8.0078-1.0156 3.9062-1.0156 7.7344-3.0469v6.7969q-3.8672 1.6406-7.9297 2.5-4.0625 0.85938-8.2422 0.85938-10.469 0-16.602-6.0938-6.0938-6.0938-6.0938-16.484 0-10.742 5.7812-17.031 5.8203-6.3281 15.664-6.3281 8.8281 0 13.945 5.7031 5.1562 5.6641 5.1562 15.43zm-7.1875-2.1094q-0.0781-5.8984-3.3203-9.4141-3.2031-3.5156-8.5156-3.5156-6.0156 0-9.6484 3.3984-3.5938 3.3984-4.1406 9.5703l25.625-0.0391z"/>
   <path d="m665.43 800.92q5.6641 1.2109 8.8281 5.0391 3.2031 3.8281 3.2031 9.4531 0 8.6328-5.9375 13.359-5.9375 4.7266-16.875 4.7266-3.6719 0-7.5781-0.74219-3.8672-0.70313-8.0078-2.1484v-7.6172q3.2812 1.9141 7.1875 2.8906 3.9062 0.97656 8.1641 0.97656 7.4219 0 11.289-2.9297 3.9062-2.9297 3.9062-8.5156 0-5.1562-3.6328-8.0469-3.5938-2.9297-10.039-2.9297h-6.7969v-6.4844h7.1094q5.8203 0 8.9062-2.3047 3.0859-2.3438 3.0859-6.7188 0-4.4922-3.2031-6.875-3.1641-2.4219-9.1016-2.4219-3.2422 0-6.9531 0.70312-3.7109 0.70313-8.1641 2.1875v-7.0312q4.4922-1.25 8.3984-1.875 3.9453-0.625 7.4219-0.625 8.9844 0 14.219 4.1016 5.2344 4.0625 5.2344 11.016 0 4.8438-2.7734 8.2031-2.7734 3.3203-7.8906 4.6094z"/>
  </g>
 </g>
</svg>
